<?xml version="1.0" encoding="utf-8"?>
<!-- Generator: Adobe Illustrator 16.0.0, SVG Export Plug-In . SVG Version: 6.00 Build 0)  -->
<!DOCTYPE svg PUBLIC "-//W3C//DTD SVG 1.1//EN" "http://www.w3.org/Graphics/SVG/1.1/DTD/svg11.dtd">
<svg version="1.1" id="Layer_1" xmlns="http://www.w3.org/2000/svg" xmlns:xlink="http://www.w3.org/1999/xlink" x="0px" y="0px"
	 width="50px" height="30px" viewBox="0 0 50 30" enable-background="new 0 0 50 30" xml:space="preserve">
<g>
	<path d="M16.08,10.588c-1.088-0.188,1.084-3.332,5.347-6.404c0,0-6.806,1.041-11.638,9.007c-0.005,0.021-1.073,1.966-1.073,3.997
		c0,3.681,2.985,6.666,6.668,6.666c3.683,0,6.67-2.985,6.67-6.666C22.054,13.74,19.836,11.239,16.08,10.588z"/>
	<path d="M34.743,10.588c-1.093-0.188,1.075-3.332,5.342-6.404c0,0-6.803,1.041-11.631,9.007c-0.013,0.021-1.08,1.966-1.08,3.997
		c0,3.681,2.983,6.666,6.668,6.666c3.683,0,6.668-2.985,6.668-6.666C40.71,13.74,38.493,11.239,34.743,10.588z"/>
</g>
</svg>
